<?xml version="1.0" encoding="utf-8"?>
<!-- Generator: Adobe Illustrator 19.0.1, SVG Export Plug-In . SVG Version: 6.00 Build 0)  -->
<svg version="1.1" id="Layer_1" xmlns="http://www.w3.org/2000/svg" xmlns:xlink="http://www.w3.org/1999/xlink" x="0px" y="0px"
	 viewBox="0 0 778 180" style="enable-background:new 0 0 778 180;" xml:space="preserve">
<style type="text/css">
	.st0{fill:none;stroke:#1C6B39;stroke-miterlimit:10;}
	.st1{fill:#1C6B39;}
	.st2{font-family:'Gotham-Medium';}
	.st3{font-size:57.1174px;}
	.st4{letter-spacing:-4;}
</style>
<g>
	<g>
		<g>
			<line class="st0" x1="250.8" y1="134.8" x2="250.8" y2="39.2"/>
		</g>
		<path class="st1" d="M186.9,85.1v0.3c0,15.8,11.7,29,28.4,29v20.5c-15.5,0-28.7-6.4-37.7-16.6l6.4,15h-23l-7.5-19.5H114l-7.5,19.5
			H84l8.4-19.6c21.9-9.8,46.4-18,72.9-24.4l0,0c-0.1-1-0.1-1.9-0.1-2.9V86c0-26.8,21-48.8,50.1-48.8v19.1
			C198.6,56.4,186.9,69.3,186.9,85.1z M162.1,81.6c-6.2,0.8-12.9,1.8-19.8,2.9l-8.5-22.1L124,87.7c-7.5,1.4-15.1,2.9-22.6,4.6
			l23-54.1h19.1L162.1,81.6z"/>
	</g>
	<text transform="matrix(1 0 0 1 285.1819 75.3646)" class="st1 st2 st3 st4">School of</text>
	<text transform="matrix(1 0 0 1 280.1816 133.4921)" class="st1 st2 st3 st4">Media &amp; Design</text>
</g>
</svg>
